<svg xmlns="http://www.w3.org/2000/svg" width="1880" height="660"
  style="background:#1a0a2e;font-family:monospace">
<defs><clipPath id="clip0"><rect x="20" y="60" width="600" height="600" /></clipPath></defs>
<rect x="20" y="60" width="600" height="600" fill="#111122" />
<g clip-path="url(#clip0)">
<rect x="-639.1" y="56.3" width="850.3" height="165.7"
      fill="#2a2a44" stroke="#444466" stroke-width="0.5" />
<rect x="174.0" y="22.3" width="85.2" height="693.4"
      fill="#2a2a44" stroke="#444466" stroke-width="0.5" />
<rect x="-528.6" y="657.4" width="698.6" height="72.0"
      fill="#2a2a44" stroke="#444466" stroke-width="0.5" />
<rect x="570.0" y="558.0" width="44.0" height="266.3"
      fill="#2a2a44" stroke="#444466" stroke-width="0.5" />
<rect x="430.6" y="332.6" width="253.7" height="267.4"
      fill="#2a2a44" stroke="#444466" stroke-width="0.5" />
<rect x="204.0" y="22.3" width="301.4" height="146.0"
      fill="#2a2a44" stroke="#444466" stroke-width="0.5" />
<rect x="170.0" y="654.0" width="48.0" height="82.3"
      fill="#2a2a44" stroke="#444466" stroke-width="0.5" />
<rect x="67.1" y="578.6" width="102.9" height="41.1"
      fill="#2a2a44" stroke="#444466" stroke-width="0.5" />
<rect x="46.6" y="606.0" width="96.0" height="41.1"
      fill="#2a2a44" stroke="#444466" stroke-width="0.5" />
<rect x="26.0" y="626.6" width="96.0" height="41.1"
      fill="#2a2a44" stroke="#444466" stroke-width="0.5" />
<rect x="5.4" y="647.1" width="96.0" height="41.1"
      fill="#2a2a44" stroke="#444466" stroke-width="0.5" />
<rect x="87.7" y="222.0" width="82.3" height="356.6"
      fill="#2a2a44" stroke="#444466" stroke-width="0.5" />
<polygon points="259.2,360.0 259.2,351.3 259.2,351.2 259.2,351.2 259.2,343.7 259.2,340.7 259.2,340.7 259.2,340.7 259.2,326.4 259.2,326.3 259.2,326.3 259.2,324.9 259.2,323.9 259.2,323.9 259.2,323.9 259.2,322.6 259.2,322.6 259.2,322.6 259.2,304.0 259.2,304.0 259.2,304.0 259.2,299.2 259.2,282.9 259.2,282.9 259.2,282.9 259.2,259.5 259.2,259.5 259.2,259.4 259.2,254.6 259.2,219.3 259.2,219.3 259.2,219.3 259.2,199.8 259.2,199.7 259.2,199.7 262.1,198.6 262.2,198.6 262.2,198.6 264.3,197.9 264.3,197.9 264.3,197.9 275.6,194.4 289.6,191.3 289.6,191.3 289.6,191.3 320.0,188.6 364.4,194.4 402.5,209.7 402.5,209.7 402.5,209.7 405.7,211.5 439.2,236.8 439.2,236.8 439.2,236.8 441.2,238.8 468.5,274.3 485.6,315.6 486.4,318.7 430.6,332.6 430.6,332.6 430.6,342.1 430.6,342.1 430.6,342.1 430.6,351.7 430.6,351.7 430.6,351.7 430.6,360.0 430.6,389.6 430.6,423.8 430.6,432.8 430.6,432.8 430.6,432.9 430.6,470.6 430.6,491.0 430.6,491.0 430.6,491.0 405.7,508.5 391.7,515.7 391.7,515.7 391.7,515.7 364.4,525.6 320.0,531.4 291.1,529.0 291.1,529.0 291.1,529.0 275.6,525.6 259.2,520.3 259.2,520.3 259.2,520.2 259.2,508.2 259.2,508.2 259.2,508.2 259.2,465.4 259.2,448.7 259.2,448.6 259.2,448.6 259.2,420.8 259.2,417.2 259.2,417.2 259.2,417.2 259.2,397.4 259.2,397.4 259.2,397.4 259.2,395.1 259.2,393.7 259.2,393.7 259.2,393.6 259.2,376.3" fill="rgba(255,230,100,0.30)" stroke="rgba(255,220,80,0.95)" stroke-width="1.5" />
<rect x="-639.1" y="56.3" width="850.3" height="165.7"
        fill="none" stroke="#f80" stroke-width="1.2" />
<rect x="174.0" y="22.3" width="85.2" height="693.4"
        fill="none" stroke="#f80" stroke-width="1.2" />
<rect x="430.6" y="332.6" width="253.7" height="267.4"
        fill="none" stroke="#f80" stroke-width="1.2" />
<rect x="204.0" y="22.3" width="301.4" height="146.0"
        fill="none" stroke="#f80" stroke-width="1.2" />
<rect x="87.7" y="222.0" width="82.3" height="356.6"
        fill="none" stroke="#f80" stroke-width="1.2" />
<circle cx="320.0" cy="360.0" r="171.4"
    fill="none" stroke="rgba(255,255,255,0.4)" stroke-width="1.2" stroke-dasharray="6 4" />
<line x1="320.0" y1="360.0" x2="259.2" y2="360.0"
      stroke="rgba(255,255,255,0.10)" stroke-width="0.5" />
<line x1="320.0" y1="360.0" x2="259.2" y2="351.3"
      stroke="rgba(255,255,255,0.10)" stroke-width="0.5" />
<line x1="320.0" y1="360.0" x2="259.2" y2="351.2"
      stroke="rgba(255,255,255,0.10)" stroke-width="0.5" />
<line x1="320.0" y1="360.0" x2="259.2" y2="351.2"
      stroke="rgba(255,255,255,0.10)" stroke-width="0.5" />
<line x1="320.0" y1="360.0" x2="259.2" y2="343.7"
      stroke="rgba(255,255,255,0.10)" stroke-width="0.5" />
<line x1="320.0" y1="360.0" x2="259.2" y2="340.7"
      stroke="rgba(255,255,255,0.10)" stroke-width="0.5" />
<line x1="320.0" y1="360.0" x2="259.2" y2="340.7"
      stroke="rgba(255,255,255,0.10)" stroke-width="0.5" />
<line x1="320.0" y1="360.0" x2="259.2" y2="340.7"
      stroke="rgba(255,255,255,0.10)" stroke-width="0.5" />
<line x1="320.0" y1="360.0" x2="259.2" y2="326.4"
      stroke="rgba(255,255,255,0.10)" stroke-width="0.5" />
<line x1="320.0" y1="360.0" x2="259.2" y2="326.3"
      stroke="rgba(255,255,255,0.10)" stroke-width="0.5" />
<line x1="320.0" y1="360.0" x2="259.2" y2="326.3"
      stroke="rgba(255,255,255,0.10)" stroke-width="0.5" />
<line x1="320.0" y1="360.0" x2="259.2" y2="324.9"
      stroke="rgba(255,255,255,0.10)" stroke-width="0.5" />
<line x1="320.0" y1="360.0" x2="259.2" y2="323.9"
      stroke="rgba(255,255,255,0.10)" stroke-width="0.5" />
<line x1="320.0" y1="360.0" x2="259.2" y2="323.9"
      stroke="rgba(255,255,255,0.10)" stroke-width="0.5" />
<line x1="320.0" y1="360.0" x2="259.2" y2="323.9"
      stroke="rgba(255,255,255,0.10)" stroke-width="0.5" />
<line x1="320.0" y1="360.0" x2="259.2" y2="322.6"
      stroke="rgba(255,255,255,0.10)" stroke-width="0.5" />
<line x1="320.0" y1="360.0" x2="259.2" y2="322.6"
      stroke="rgba(255,255,255,0.10)" stroke-width="0.5" />
<line x1="320.0" y1="360.0" x2="259.2" y2="322.6"
      stroke="rgba(255,255,255,0.10)" stroke-width="0.5" />
<line x1="320.0" y1="360.0" x2="259.2" y2="304.0"
      stroke="rgba(255,255,255,0.10)" stroke-width="0.5" />
<line x1="320.0" y1="360.0" x2="259.2" y2="304.0"
      stroke="rgba(255,255,255,0.10)" stroke-width="0.5" />
<line x1="320.0" y1="360.0" x2="259.2" y2="304.0"
      stroke="rgba(255,255,255,0.10)" stroke-width="0.5" />
<line x1="320.0" y1="360.0" x2="259.2" y2="299.2"
      stroke="rgba(255,255,255,0.10)" stroke-width="0.5" />
<line x1="320.0" y1="360.0" x2="259.2" y2="282.9"
      stroke="rgba(255,255,255,0.10)" stroke-width="0.5" />
<line x1="320.0" y1="360.0" x2="259.2" y2="282.9"
      stroke="rgba(255,255,255,0.10)" stroke-width="0.5" />
<line x1="320.0" y1="360.0" x2="259.2" y2="282.9"
      stroke="rgba(255,255,255,0.10)" stroke-width="0.5" />
<line x1="320.0" y1="360.0" x2="259.2" y2="259.5"
      stroke="rgba(255,255,255,0.10)" stroke-width="0.5" />
<line x1="320.0" y1="360.0" x2="259.2" y2="259.5"
      stroke="rgba(255,255,255,0.10)" stroke-width="0.5" />
<line x1="320.0" y1="360.0" x2="259.2" y2="259.4"
      stroke="rgba(255,255,255,0.10)" stroke-width="0.5" />
<line x1="320.0" y1="360.0" x2="259.2" y2="254.6"
      stroke="rgba(255,255,255,0.10)" stroke-width="0.5" />
<line x1="320.0" y1="360.0" x2="259.2" y2="219.3"
      stroke="rgba(255,255,255,0.10)" stroke-width="0.5" />
<line x1="320.0" y1="360.0" x2="259.2" y2="219.3"
      stroke="rgba(255,255,255,0.10)" stroke-width="0.5" />
<line x1="320.0" y1="360.0" x2="259.2" y2="219.3"
      stroke="rgba(255,255,255,0.10)" stroke-width="0.5" />
<line x1="320.0" y1="360.0" x2="259.2" y2="199.8"
      stroke="rgba(255,255,255,0.10)" stroke-width="0.5" />
<line x1="320.0" y1="360.0" x2="259.2" y2="199.7"
      stroke="rgba(255,255,255,0.10)" stroke-width="0.5" />
<line x1="320.0" y1="360.0" x2="259.2" y2="199.7"
      stroke="rgba(255,255,255,0.10)" stroke-width="0.5" />
<line x1="320.0" y1="360.0" x2="262.1" y2="198.6"
      stroke="rgba(255,255,255,0.10)" stroke-width="0.5" />
<line x1="320.0" y1="360.0" x2="262.2" y2="198.6"
      stroke="rgba(255,255,255,0.10)" stroke-width="0.5" />
<line x1="320.0" y1="360.0" x2="262.2" y2="198.6"
      stroke="rgba(255,255,255,0.10)" stroke-width="0.5" />
<line x1="320.0" y1="360.0" x2="264.3" y2="197.9"
      stroke="rgba(255,255,255,0.10)" stroke-width="0.5" />
<line x1="320.0" y1="360.0" x2="264.3" y2="197.9"
      stroke="rgba(255,255,255,0.10)" stroke-width="0.5" />
<line x1="320.0" y1="360.0" x2="264.3" y2="197.9"
      stroke="rgba(255,255,255,0.10)" stroke-width="0.5" />
<line x1="320.0" y1="360.0" x2="275.6" y2="194.4"
      stroke="rgba(255,255,255,0.10)" stroke-width="0.5" />
<line x1="320.0" y1="360.0" x2="289.6" y2="191.3"
      stroke="rgba(255,255,255,0.10)" stroke-width="0.5" />
<line x1="320.0" y1="360.0" x2="289.6" y2="191.3"
      stroke="rgba(255,255,255,0.10)" stroke-width="0.5" />
<line x1="320.0" y1="360.0" x2="289.6" y2="191.3"
      stroke="rgba(255,255,255,0.10)" stroke-width="0.5" />
<line x1="320.0" y1="360.0" x2="320.0" y2="188.6"
      stroke="rgba(255,255,255,0.10)" stroke-width="0.5" />
<line x1="320.0" y1="360.0" x2="364.4" y2="194.4"
      stroke="rgba(255,255,255,0.10)" stroke-width="0.5" />
<line x1="320.0" y1="360.0" x2="402.5" y2="209.7"
      stroke="rgba(255,255,255,0.10)" stroke-width="0.5" />
<line x1="320.0" y1="360.0" x2="402.5" y2="209.7"
      stroke="rgba(255,255,255,0.10)" stroke-width="0.5" />
<line x1="320.0" y1="360.0" x2="402.5" y2="209.7"
      stroke="rgba(255,255,255,0.10)" stroke-width="0.5" />
<line x1="320.0" y1="360.0" x2="405.7" y2="211.5"
      stroke="rgba(255,255,255,0.10)" stroke-width="0.5" />
<line x1="320.0" y1="360.0" x2="439.2" y2="236.8"
      stroke="rgba(255,255,255,0.10)" stroke-width="0.5" />
<line x1="320.0" y1="360.0" x2="439.2" y2="236.8"
      stroke="rgba(255,255,255,0.10)" stroke-width="0.5" />
<line x1="320.0" y1="360.0" x2="439.2" y2="236.8"
      stroke="rgba(255,255,255,0.10)" stroke-width="0.5" />
<line x1="320.0" y1="360.0" x2="441.2" y2="238.8"
      stroke="rgba(255,255,255,0.10)" stroke-width="0.5" />
<line x1="320.0" y1="360.0" x2="468.5" y2="274.3"
      stroke="rgba(255,255,255,0.10)" stroke-width="0.5" />
<line x1="320.0" y1="360.0" x2="485.6" y2="315.6"
      stroke="rgba(255,255,255,0.10)" stroke-width="0.5" />
<line x1="320.0" y1="360.0" x2="486.4" y2="318.7"
      stroke="rgba(255,255,255,0.10)" stroke-width="0.5" />
<line x1="320.0" y1="360.0" x2="430.6" y2="332.6"
      stroke="rgba(255,255,255,0.10)" stroke-width="0.5" />
<line x1="320.0" y1="360.0" x2="430.6" y2="332.6"
      stroke="rgba(255,255,255,0.10)" stroke-width="0.5" />
<line x1="320.0" y1="360.0" x2="430.6" y2="342.1"
      stroke="rgba(255,255,255,0.10)" stroke-width="0.5" />
<line x1="320.0" y1="360.0" x2="430.6" y2="342.1"
      stroke="rgba(255,255,255,0.10)" stroke-width="0.5" />
<line x1="320.0" y1="360.0" x2="430.6" y2="342.1"
      stroke="rgba(255,255,255,0.10)" stroke-width="0.5" />
<line x1="320.0" y1="360.0" x2="430.6" y2="351.7"
      stroke="rgba(255,255,255,0.10)" stroke-width="0.5" />
<line x1="320.0" y1="360.0" x2="430.6" y2="351.7"
      stroke="rgba(255,255,255,0.10)" stroke-width="0.5" />
<line x1="320.0" y1="360.0" x2="430.6" y2="351.7"
      stroke="rgba(255,255,255,0.10)" stroke-width="0.5" />
<line x1="320.0" y1="360.0" x2="430.6" y2="360.0"
      stroke="rgba(255,255,255,0.10)" stroke-width="0.5" />
<line x1="320.0" y1="360.0" x2="430.6" y2="389.6"
      stroke="rgba(255,255,255,0.10)" stroke-width="0.5" />
<line x1="320.0" y1="360.0" x2="430.6" y2="423.8"
      stroke="rgba(255,255,255,0.10)" stroke-width="0.5" />
<line x1="320.0" y1="360.0" x2="430.6" y2="432.8"
      stroke="rgba(255,255,255,0.10)" stroke-width="0.5" />
<line x1="320.0" y1="360.0" x2="430.6" y2="432.8"
      stroke="rgba(255,255,255,0.10)" stroke-width="0.5" />
<line x1="320.0" y1="360.0" x2="430.6" y2="432.9"
      stroke="rgba(255,255,255,0.10)" stroke-width="0.5" />
<line x1="320.0" y1="360.0" x2="430.6" y2="470.6"
      stroke="rgba(255,255,255,0.10)" stroke-width="0.5" />
<line x1="320.0" y1="360.0" x2="430.6" y2="491.0"
      stroke="rgba(255,255,255,0.10)" stroke-width="0.5" />
<line x1="320.0" y1="360.0" x2="430.6" y2="491.0"
      stroke="rgba(255,255,255,0.10)" stroke-width="0.5" />
<line x1="320.0" y1="360.0" x2="430.6" y2="491.0"
      stroke="rgba(255,255,255,0.10)" stroke-width="0.5" />
<line x1="320.0" y1="360.0" x2="405.7" y2="508.5"
      stroke="rgba(255,255,255,0.10)" stroke-width="0.5" />
<line x1="320.0" y1="360.0" x2="391.7" y2="515.7"
      stroke="rgba(255,255,255,0.10)" stroke-width="0.5" />
<line x1="320.0" y1="360.0" x2="391.7" y2="515.7"
      stroke="rgba(255,255,255,0.10)" stroke-width="0.5" />
<line x1="320.0" y1="360.0" x2="391.7" y2="515.7"
      stroke="rgba(255,255,255,0.10)" stroke-width="0.5" />
<line x1="320.0" y1="360.0" x2="364.4" y2="525.6"
      stroke="rgba(255,255,255,0.10)" stroke-width="0.5" />
<line x1="320.0" y1="360.0" x2="320.0" y2="531.4"
      stroke="rgba(255,255,255,0.10)" stroke-width="0.5" />
<line x1="320.0" y1="360.0" x2="291.1" y2="529.0"
      stroke="rgba(255,255,255,0.10)" stroke-width="0.5" />
<line x1="320.0" y1="360.0" x2="291.1" y2="529.0"
      stroke="rgba(255,255,255,0.10)" stroke-width="0.5" />
<line x1="320.0" y1="360.0" x2="291.1" y2="529.0"
      stroke="rgba(255,255,255,0.10)" stroke-width="0.5" />
<line x1="320.0" y1="360.0" x2="275.6" y2="525.6"
      stroke="rgba(255,255,255,0.10)" stroke-width="0.5" />
<line x1="320.0" y1="360.0" x2="259.2" y2="520.3"
      stroke="rgba(255,255,255,0.10)" stroke-width="0.5" />
<line x1="320.0" y1="360.0" x2="259.2" y2="520.3"
      stroke="rgba(255,255,255,0.10)" stroke-width="0.5" />
<line x1="320.0" y1="360.0" x2="259.2" y2="520.2"
      stroke="rgba(255,255,255,0.10)" stroke-width="0.5" />
<line x1="320.0" y1="360.0" x2="259.2" y2="508.2"
      stroke="rgba(255,255,255,0.10)" stroke-width="0.5" />
<line x1="320.0" y1="360.0" x2="259.2" y2="508.2"
      stroke="rgba(255,255,255,0.10)" stroke-width="0.5" />
<line x1="320.0" y1="360.0" x2="259.2" y2="508.2"
      stroke="rgba(255,255,255,0.10)" stroke-width="0.5" />
<line x1="320.0" y1="360.0" x2="259.2" y2="465.4"
      stroke="rgba(255,255,255,0.10)" stroke-width="0.5" />
<line x1="320.0" y1="360.0" x2="259.2" y2="448.7"
      stroke="rgba(255,255,255,0.10)" stroke-width="0.5" />
<line x1="320.0" y1="360.0" x2="259.2" y2="448.6"
      stroke="rgba(255,255,255,0.10)" stroke-width="0.5" />
<line x1="320.0" y1="360.0" x2="259.2" y2="448.6"
      stroke="rgba(255,255,255,0.10)" stroke-width="0.5" />
<line x1="320.0" y1="360.0" x2="259.2" y2="420.8"
      stroke="rgba(255,255,255,0.10)" stroke-width="0.5" />
<line x1="320.0" y1="360.0" x2="259.2" y2="417.2"
      stroke="rgba(255,255,255,0.10)" stroke-width="0.5" />
<line x1="320.0" y1="360.0" x2="259.2" y2="417.2"
      stroke="rgba(255,255,255,0.10)" stroke-width="0.5" />
<line x1="320.0" y1="360.0" x2="259.2" y2="417.2"
      stroke="rgba(255,255,255,0.10)" stroke-width="0.5" />
<line x1="320.0" y1="360.0" x2="259.2" y2="397.4"
      stroke="rgba(255,255,255,0.10)" stroke-width="0.5" />
<line x1="320.0" y1="360.0" x2="259.2" y2="397.4"
      stroke="rgba(255,255,255,0.10)" stroke-width="0.5" />
<line x1="320.0" y1="360.0" x2="259.2" y2="397.4"
      stroke="rgba(255,255,255,0.10)" stroke-width="0.5" />
<line x1="320.0" y1="360.0" x2="259.2" y2="395.1"
      stroke="rgba(255,255,255,0.10)" stroke-width="0.5" />
<line x1="320.0" y1="360.0" x2="259.2" y2="393.7"
      stroke="rgba(255,255,255,0.10)" stroke-width="0.5" />
<line x1="320.0" y1="360.0" x2="259.2" y2="393.7"
      stroke="rgba(255,255,255,0.10)" stroke-width="0.5" />
<line x1="320.0" y1="360.0" x2="259.2" y2="393.6"
      stroke="rgba(255,255,255,0.10)" stroke-width="0.5" />
<line x1="320.0" y1="360.0" x2="259.2" y2="376.3"
      stroke="rgba(255,255,255,0.10)" stroke-width="0.5" />
<circle cx="320.0" cy="360.0" r="5" fill="#00ff66" />
</g>
<rect x="20" y="60" width="600" height="600" fill="none" stroke="#555" stroke-width="1" />
<text x="320" y="48" fill="white" font-size="15" text-anchor="middle" font-family="monospace">Spawn (hallway) — 108 rays, vision r=200</text>
<defs><clipPath id="clip1"><rect x="640" y="60" width="600" height="600" /></clipPath></defs>
<rect x="640" y="60" width="600" height="600" fill="#111122" />
<g clip-path="url(#clip1)">
<rect x="614.3" y="69.4" width="192.0" height="144.0"
      fill="#2a2a44" stroke="#444466" stroke-width="0.5" />
<rect x="1127.7" y="63.4" width="192.0" height="144.0"
      fill="#2a2a44" stroke="#444466" stroke-width="0.5" />
<rect x="877.4" y="337.7" width="192.0" height="143.1"
      fill="#2a2a44" stroke="#444466" stroke-width="0.5" />
<rect x="1128.6" y="600.9" width="192.0" height="147.4"
      fill="#2a2a44" stroke="#444466" stroke-width="0.5" />
<rect x="616.9" y="597.4" width="192.0" height="144.0"
      fill="#2a2a44" stroke="#444466" stroke-width="0.5" />
<polygon points="877.4,360.0 877.4,343.2 877.4,337.7 877.4,337.7 877.4,337.7 890.5,337.7 890.5,337.7 890.5,337.7 901.4,337.7 915.0,337.7 915.0,337.7 915.0,337.7 917.7,337.7 919.7,337.7 919.7,337.7 919.7,337.7 927.1,337.7 929.7,337.7 929.7,337.7 929.7,337.7 934.0,337.7 940.0,337.7 946.0,337.7 952.9,337.7 954.1,337.7 954.1,337.7 954.1,337.7 962.3,337.7 967.4,337.7 967.4,337.7 967.4,337.7 968.5,337.7 968.5,337.7 968.5,337.7 978.6,337.7 995.4,337.7 995.5,337.7 995.5,337.7 1023.2,337.7 1069.4,337.7 1069.4,337.7 1069.4,337.7 1069.4,360.0 1069.4,394.7 1069.4,434.7 1069.4,472.4 1069.4,472.4 1069.4,472.4 1065.3,477.0 1065.3,477.0 1065.3,477.0 1061.6,480.8 1061.6,480.9 1061.6,480.9 1060.9,480.9 1009.8,480.9 972.4,480.9 940.0,480.9 907.6,480.9 877.4,480.9 877.4,480.9 877.4,480.8 877.4,468.4 877.4,422.6 877.4,396.1 877.4,376.8" fill="rgba(255,230,100,0.30)" stroke="rgba(255,220,80,0.95)" stroke-width="1.5" />
<rect x="614.3" y="69.4" width="192.0" height="144.0"
        fill="none" stroke="#f80" stroke-width="1.2" />
<rect x="1127.7" y="63.4" width="192.0" height="144.0"
        fill="none" stroke="#f80" stroke-width="1.2" />
<rect x="877.4" y="337.7" width="192.0" height="143.1"
        fill="none" stroke="#f80" stroke-width="1.2" />
<circle cx="940.0" cy="360.0" r="171.4"
    fill="none" stroke="rgba(255,255,255,0.4)" stroke-width="1.2" stroke-dasharray="6 4" />
<line x1="940.0" y1="360.0" x2="877.4" y2="360.0"
      stroke="rgba(255,255,255,0.10)" stroke-width="0.5" />
<line x1="940.0" y1="360.0" x2="877.4" y2="343.2"
      stroke="rgba(255,255,255,0.10)" stroke-width="0.5" />
<line x1="940.0" y1="360.0" x2="877.4" y2="337.7"
      stroke="rgba(255,255,255,0.10)" stroke-width="0.5" />
<line x1="940.0" y1="360.0" x2="877.4" y2="337.7"
      stroke="rgba(255,255,255,0.10)" stroke-width="0.5" />
<line x1="940.0" y1="360.0" x2="877.4" y2="337.7"
      stroke="rgba(255,255,255,0.10)" stroke-width="0.5" />
<line x1="940.0" y1="360.0" x2="890.5" y2="337.7"
      stroke="rgba(255,255,255,0.10)" stroke-width="0.5" />
<line x1="940.0" y1="360.0" x2="890.5" y2="337.7"
      stroke="rgba(255,255,255,0.10)" stroke-width="0.5" />
<line x1="940.0" y1="360.0" x2="890.5" y2="337.7"
      stroke="rgba(255,255,255,0.10)" stroke-width="0.5" />
<line x1="940.0" y1="360.0" x2="901.4" y2="337.7"
      stroke="rgba(255,255,255,0.10)" stroke-width="0.5" />
<line x1="940.0" y1="360.0" x2="915.0" y2="337.7"
      stroke="rgba(255,255,255,0.10)" stroke-width="0.5" />
<line x1="940.0" y1="360.0" x2="915.0" y2="337.7"
      stroke="rgba(255,255,255,0.10)" stroke-width="0.5" />
<line x1="940.0" y1="360.0" x2="915.0" y2="337.7"
      stroke="rgba(255,255,255,0.10)" stroke-width="0.5" />
<line x1="940.0" y1="360.0" x2="917.7" y2="337.7"
      stroke="rgba(255,255,255,0.10)" stroke-width="0.5" />
<line x1="940.0" y1="360.0" x2="919.7" y2="337.7"
      stroke="rgba(255,255,255,0.10)" stroke-width="0.5" />
<line x1="940.0" y1="360.0" x2="919.7" y2="337.7"
      stroke="rgba(255,255,255,0.10)" stroke-width="0.5" />
<line x1="940.0" y1="360.0" x2="919.7" y2="337.7"
      stroke="rgba(255,255,255,0.10)" stroke-width="0.5" />
<line x1="940.0" y1="360.0" x2="927.1" y2="337.7"
      stroke="rgba(255,255,255,0.10)" stroke-width="0.5" />
<line x1="940.0" y1="360.0" x2="929.7" y2="337.7"
      stroke="rgba(255,255,255,0.10)" stroke-width="0.5" />
<line x1="940.0" y1="360.0" x2="929.7" y2="337.7"
      stroke="rgba(255,255,255,0.10)" stroke-width="0.5" />
<line x1="940.0" y1="360.0" x2="929.7" y2="337.7"
      stroke="rgba(255,255,255,0.10)" stroke-width="0.5" />
<line x1="940.0" y1="360.0" x2="934.0" y2="337.7"
      stroke="rgba(255,255,255,0.10)" stroke-width="0.5" />
<line x1="940.0" y1="360.0" x2="940.0" y2="337.7"
      stroke="rgba(255,255,255,0.10)" stroke-width="0.5" />
<line x1="940.0" y1="360.0" x2="946.0" y2="337.7"
      stroke="rgba(255,255,255,0.10)" stroke-width="0.5" />
<line x1="940.0" y1="360.0" x2="952.9" y2="337.7"
      stroke="rgba(255,255,255,0.10)" stroke-width="0.5" />
<line x1="940.0" y1="360.0" x2="954.1" y2="337.7"
      stroke="rgba(255,255,255,0.10)" stroke-width="0.5" />
<line x1="940.0" y1="360.0" x2="954.1" y2="337.7"
      stroke="rgba(255,255,255,0.10)" stroke-width="0.5" />
<line x1="940.0" y1="360.0" x2="954.1" y2="337.7"
      stroke="rgba(255,255,255,0.10)" stroke-width="0.5" />
<line x1="940.0" y1="360.0" x2="962.3" y2="337.7"
      stroke="rgba(255,255,255,0.10)" stroke-width="0.5" />
<line x1="940.0" y1="360.0" x2="967.4" y2="337.7"
      stroke="rgba(255,255,255,0.10)" stroke-width="0.5" />
<line x1="940.0" y1="360.0" x2="967.4" y2="337.7"
      stroke="rgba(255,255,255,0.10)" stroke-width="0.5" />
<line x1="940.0" y1="360.0" x2="967.4" y2="337.7"
      stroke="rgba(255,255,255,0.10)" stroke-width="0.5" />
<line x1="940.0" y1="360.0" x2="968.5" y2="337.7"
      stroke="rgba(255,255,255,0.10)" stroke-width="0.5" />
<line x1="940.0" y1="360.0" x2="968.5" y2="337.7"
      stroke="rgba(255,255,255,0.10)" stroke-width="0.5" />
<line x1="940.0" y1="360.0" x2="968.5" y2="337.7"
      stroke="rgba(255,255,255,0.10)" stroke-width="0.5" />
<line x1="940.0" y1="360.0" x2="978.6" y2="337.7"
      stroke="rgba(255,255,255,0.10)" stroke-width="0.5" />
<line x1="940.0" y1="360.0" x2="995.4" y2="337.7"
      stroke="rgba(255,255,255,0.10)" stroke-width="0.5" />
<line x1="940.0" y1="360.0" x2="995.5" y2="337.7"
      stroke="rgba(255,255,255,0.10)" stroke-width="0.5" />
<line x1="940.0" y1="360.0" x2="995.5" y2="337.7"
      stroke="rgba(255,255,255,0.10)" stroke-width="0.5" />
<line x1="940.0" y1="360.0" x2="1023.2" y2="337.7"
      stroke="rgba(255,255,255,0.10)" stroke-width="0.5" />
<line x1="940.0" y1="360.0" x2="1069.4" y2="337.7"
      stroke="rgba(255,255,255,0.10)" stroke-width="0.5" />
<line x1="940.0" y1="360.0" x2="1069.4" y2="337.7"
      stroke="rgba(255,255,255,0.10)" stroke-width="0.5" />
<line x1="940.0" y1="360.0" x2="1069.4" y2="337.7"
      stroke="rgba(255,255,255,0.10)" stroke-width="0.5" />
<line x1="940.0" y1="360.0" x2="1069.4" y2="360.0"
      stroke="rgba(255,255,255,0.10)" stroke-width="0.5" />
<line x1="940.0" y1="360.0" x2="1069.4" y2="394.7"
      stroke="rgba(255,255,255,0.10)" stroke-width="0.5" />
<line x1="940.0" y1="360.0" x2="1069.4" y2="434.7"
      stroke="rgba(255,255,255,0.10)" stroke-width="0.5" />
<line x1="940.0" y1="360.0" x2="1069.4" y2="472.4"
      stroke="rgba(255,255,255,0.10)" stroke-width="0.5" />
<line x1="940.0" y1="360.0" x2="1069.4" y2="472.4"
      stroke="rgba(255,255,255,0.10)" stroke-width="0.5" />
<line x1="940.0" y1="360.0" x2="1069.4" y2="472.4"
      stroke="rgba(255,255,255,0.10)" stroke-width="0.5" />
<line x1="940.0" y1="360.0" x2="1065.3" y2="477.0"
      stroke="rgba(255,255,255,0.10)" stroke-width="0.5" />
<line x1="940.0" y1="360.0" x2="1065.3" y2="477.0"
      stroke="rgba(255,255,255,0.10)" stroke-width="0.5" />
<line x1="940.0" y1="360.0" x2="1065.3" y2="477.0"
      stroke="rgba(255,255,255,0.10)" stroke-width="0.5" />
<line x1="940.0" y1="360.0" x2="1061.6" y2="480.8"
      stroke="rgba(255,255,255,0.10)" stroke-width="0.5" />
<line x1="940.0" y1="360.0" x2="1061.6" y2="480.9"
      stroke="rgba(255,255,255,0.10)" stroke-width="0.5" />
<line x1="940.0" y1="360.0" x2="1061.6" y2="480.9"
      stroke="rgba(255,255,255,0.10)" stroke-width="0.5" />
<line x1="940.0" y1="360.0" x2="1060.9" y2="480.9"
      stroke="rgba(255,255,255,0.10)" stroke-width="0.5" />
<line x1="940.0" y1="360.0" x2="1009.8" y2="480.9"
      stroke="rgba(255,255,255,0.10)" stroke-width="0.5" />
<line x1="940.0" y1="360.0" x2="972.4" y2="480.9"
      stroke="rgba(255,255,255,0.10)" stroke-width="0.5" />
<line x1="940.0" y1="360.0" x2="940.0" y2="480.9"
      stroke="rgba(255,255,255,0.10)" stroke-width="0.5" />
<line x1="940.0" y1="360.0" x2="907.6" y2="480.9"
      stroke="rgba(255,255,255,0.10)" stroke-width="0.5" />
<line x1="940.0" y1="360.0" x2="877.4" y2="480.9"
      stroke="rgba(255,255,255,0.10)" stroke-width="0.5" />
<line x1="940.0" y1="360.0" x2="877.4" y2="480.9"
      stroke="rgba(255,255,255,0.10)" stroke-width="0.5" />
<line x1="940.0" y1="360.0" x2="877.4" y2="480.8"
      stroke="rgba(255,255,255,0.10)" stroke-width="0.5" />
<line x1="940.0" y1="360.0" x2="877.4" y2="468.4"
      stroke="rgba(255,255,255,0.10)" stroke-width="0.5" />
<line x1="940.0" y1="360.0" x2="877.4" y2="422.6"
      stroke="rgba(255,255,255,0.10)" stroke-width="0.5" />
<line x1="940.0" y1="360.0" x2="877.4" y2="396.1"
      stroke="rgba(255,255,255,0.10)" stroke-width="0.5" />
<line x1="940.0" y1="360.0" x2="877.4" y2="376.8"
      stroke="rgba(255,255,255,0.10)" stroke-width="0.5" />
<circle cx="940.0" cy="360.0" r="5" fill="#00ff66" />
</g>
<rect x="640" y="60" width="600" height="600" fill="none" stroke="#555" stroke-width="1" />
<text x="940" y="48" fill="white" font-size="15" text-anchor="middle" font-family="monospace">Cafeteria — 66 rays, vision r=200</text>
<defs><clipPath id="clip2"><rect x="1260" y="60" width="600" height="600" /></clipPath></defs>
<rect x="1260" y="60" width="600" height="600" fill="#111122" />
<g clip-path="url(#clip2)">
<rect x="1762.6" y="656.0" width="173.6" height="50.0"
      fill="#2a2a44" stroke="#444466" stroke-width="0.5" />
<rect x="1854.3" y="-399.2" width="29.7" height="478.7"
      fill="#2a2a44" stroke="#444466" stroke-width="0.5" />
<rect x="1768.6" y="-21.0" width="38.3" height="171.3"
      fill="#2a2a44" stroke="#444466" stroke-width="0.5" />
<rect x="1433.5" y="77.9" width="38.3" height="697.0"
      fill="#2a2a44" stroke="#444466" stroke-width="0.5" />
<rect x="1854.3" y="31.3" width="218.3" height="48.1"
      fill="#2a2a44" stroke="#444466" stroke-width="0.5" />
<rect x="1768.6" y="150.5" width="167.7" height="48.1"
      fill="#2a2a44" stroke="#444466" stroke-width="0.5" />
<rect x="1470.9" y="116.6" width="61.7" height="637.7"
      fill="#2a2a44" stroke="#444466" stroke-width="0.5" />
<rect x="1518.9" y="13.7" width="75.4" height="54.9"
      fill="#2a2a44" stroke="#444466" stroke-width="0.5" />
<rect x="1566.9" y="68.6" width="27.4" height="27.4"
      fill="#2a2a44" stroke="#444466" stroke-width="0.5" />
<rect x="1532.6" y="96.0" width="34.3" height="20.6"
      fill="#2a2a44" stroke="#444466" stroke-width="0.5" />
<rect x="1518.9" y="68.6" width="48.0" height="48.0"
      fill="#2a2a44" stroke="#444466" stroke-width="0.5" />
<rect x="1470.9" y="20.6" width="48.0" height="96.0"
      fill="#2a2a44" stroke="#444466" stroke-width="0.5" />
<rect x="1594.3" y="41.1" width="27.4" height="27.4"
      fill="#2a2a44" stroke="#444466" stroke-width="0.5" />
<polygon points="1532.6,360.0 1532.6,352.7 1532.6,344.2 1532.6,334.9 1532.6,334.9 1532.6,334.9 1532.6,332.6 1532.6,315.0 1532.6,314.9 1532.6,314.9 1532.6,314.4 1532.6,314.3 1532.6,314.3 1532.6,312.5 1532.6,298.9 1532.6,298.8 1532.6,298.8 1532.6,285.1 1532.6,285.1 1532.6,285.1 1532.6,285.1 1532.6,285.1 1532.6,285.1 1532.6,272.4 1532.6,272.3 1532.6,272.3 1532.6,257.6 1532.6,255.6 1532.6,255.6 1532.6,255.5 1532.6,197.8 1532.6,197.8 1532.6,197.7 1532.6,197.7 1532.6,197.6 1532.6,197.6 1532.6,190.9 1532.6,190.8 1532.6,190.8 1536.0,190.3 1536.0,190.3 1536.1,190.3 1539.4,189.8 1539.4,189.8 1539.4,189.8 1540.8,189.7 1540.8,189.7 1540.8,189.6 1540.8,189.6 1540.8,189.6 1540.8,189.6 1542.3,189.5 1542.3,189.5 1542.3,189.5 1560.0,188.6 1564.0,188.6 1564.0,188.6 1564.0,188.6 1564.4,188.6 1564.5,188.6 1564.5,188.6 1564.8,188.6 1564.8,188.6 1564.8,188.6 1564.8,188.6 1564.8,188.6 1564.8,188.6 1604.4,194.4 1645.7,211.5 1681.2,238.8 1708.5,274.3 1725.6,315.6 1731.4,360.0 1725.6,404.4 1708.5,445.7 1681.2,481.2 1645.7,508.5 1604.4,525.6 1560.0,531.4 1548.1,531.0 1548.1,531.0 1548.1,531.0 1532.6,529.2 1532.6,529.2 1532.6,529.1 1532.6,488.9 1532.6,488.9 1532.6,488.8 1532.6,481.4 1532.6,481.3 1532.6,481.3 1532.6,462.4 1532.6,449.9 1532.6,449.9 1532.6,449.9 1532.6,407.5 1532.6,405.7 1532.6,405.7 1532.6,405.6 1532.6,405.1 1532.6,405.1 1532.6,405.0 1532.6,387.4 1532.6,385.1 1532.6,385.1 1532.6,385.1 1532.6,375.8 1532.6,367.3" fill="rgba(255,230,100,0.30)" stroke="rgba(255,220,80,0.95)" stroke-width="1.5" />
<rect x="1433.5" y="77.9" width="38.3" height="697.0"
        fill="none" stroke="#f80" stroke-width="1.2" />
<rect x="1470.9" y="116.6" width="61.7" height="637.7"
        fill="none" stroke="#f80" stroke-width="1.2" />
<rect x="1532.6" y="96.0" width="34.3" height="20.6"
        fill="none" stroke="#f80" stroke-width="1.2" />
<rect x="1518.9" y="68.6" width="48.0" height="48.0"
        fill="none" stroke="#f80" stroke-width="1.2" />
<rect x="1470.9" y="20.6" width="48.0" height="96.0"
        fill="none" stroke="#f80" stroke-width="1.2" />
<circle cx="1560.0" cy="360.0" r="171.4"
    fill="none" stroke="rgba(255,255,255,0.4)" stroke-width="1.2" stroke-dasharray="6 4" />
<line x1="1560.0" y1="360.0" x2="1532.6" y2="360.0"
      stroke="rgba(255,255,255,0.10)" stroke-width="0.5" />
<line x1="1560.0" y1="360.0" x2="1532.6" y2="352.7"
      stroke="rgba(255,255,255,0.10)" stroke-width="0.5" />
<line x1="1560.0" y1="360.0" x2="1532.6" y2="344.2"
      stroke="rgba(255,255,255,0.10)" stroke-width="0.5" />
<line x1="1560.0" y1="360.0" x2="1532.6" y2="334.9"
      stroke="rgba(255,255,255,0.10)" stroke-width="0.5" />
<line x1="1560.0" y1="360.0" x2="1532.6" y2="334.9"
      stroke="rgba(255,255,255,0.10)" stroke-width="0.5" />
<line x1="1560.0" y1="360.0" x2="1532.6" y2="334.9"
      stroke="rgba(255,255,255,0.10)" stroke-width="0.5" />
<line x1="1560.0" y1="360.0" x2="1532.6" y2="332.6"
      stroke="rgba(255,255,255,0.10)" stroke-width="0.5" />
<line x1="1560.0" y1="360.0" x2="1532.6" y2="315.0"
      stroke="rgba(255,255,255,0.10)" stroke-width="0.5" />
<line x1="1560.0" y1="360.0" x2="1532.6" y2="314.9"
      stroke="rgba(255,255,255,0.10)" stroke-width="0.5" />
<line x1="1560.0" y1="360.0" x2="1532.6" y2="314.9"
      stroke="rgba(255,255,255,0.10)" stroke-width="0.5" />
<line x1="1560.0" y1="360.0" x2="1532.6" y2="314.4"
      stroke="rgba(255,255,255,0.10)" stroke-width="0.5" />
<line x1="1560.0" y1="360.0" x2="1532.6" y2="314.3"
      stroke="rgba(255,255,255,0.10)" stroke-width="0.5" />
<line x1="1560.0" y1="360.0" x2="1532.6" y2="314.3"
      stroke="rgba(255,255,255,0.10)" stroke-width="0.5" />
<line x1="1560.0" y1="360.0" x2="1532.6" y2="312.5"
      stroke="rgba(255,255,255,0.10)" stroke-width="0.5" />
<line x1="1560.0" y1="360.0" x2="1532.6" y2="298.9"
      stroke="rgba(255,255,255,0.10)" stroke-width="0.5" />
<line x1="1560.0" y1="360.0" x2="1532.6" y2="298.8"
      stroke="rgba(255,255,255,0.10)" stroke-width="0.5" />
<line x1="1560.0" y1="360.0" x2="1532.6" y2="298.8"
      stroke="rgba(255,255,255,0.10)" stroke-width="0.5" />
<line x1="1560.0" y1="360.0" x2="1532.6" y2="285.1"
      stroke="rgba(255,255,255,0.10)" stroke-width="0.5" />
<line x1="1560.0" y1="360.0" x2="1532.6" y2="285.1"
      stroke="rgba(255,255,255,0.10)" stroke-width="0.5" />
<line x1="1560.0" y1="360.0" x2="1532.6" y2="285.1"
      stroke="rgba(255,255,255,0.10)" stroke-width="0.5" />
<line x1="1560.0" y1="360.0" x2="1532.6" y2="285.1"
      stroke="rgba(255,255,255,0.10)" stroke-width="0.5" />
<line x1="1560.0" y1="360.0" x2="1532.6" y2="285.1"
      stroke="rgba(255,255,255,0.10)" stroke-width="0.5" />
<line x1="1560.0" y1="360.0" x2="1532.6" y2="285.1"
      stroke="rgba(255,255,255,0.10)" stroke-width="0.5" />
<line x1="1560.0" y1="360.0" x2="1532.6" y2="272.4"
      stroke="rgba(255,255,255,0.10)" stroke-width="0.5" />
<line x1="1560.0" y1="360.0" x2="1532.6" y2="272.3"
      stroke="rgba(255,255,255,0.10)" stroke-width="0.5" />
<line x1="1560.0" y1="360.0" x2="1532.6" y2="272.3"
      stroke="rgba(255,255,255,0.10)" stroke-width="0.5" />
<line x1="1560.0" y1="360.0" x2="1532.6" y2="257.6"
      stroke="rgba(255,255,255,0.10)" stroke-width="0.5" />
<line x1="1560.0" y1="360.0" x2="1532.6" y2="255.6"
      stroke="rgba(255,255,255,0.10)" stroke-width="0.5" />
<line x1="1560.0" y1="360.0" x2="1532.6" y2="255.6"
      stroke="rgba(255,255,255,0.10)" stroke-width="0.5" />
<line x1="1560.0" y1="360.0" x2="1532.6" y2="255.5"
      stroke="rgba(255,255,255,0.10)" stroke-width="0.5" />
<line x1="1560.0" y1="360.0" x2="1532.6" y2="197.8"
      stroke="rgba(255,255,255,0.10)" stroke-width="0.5" />
<line x1="1560.0" y1="360.0" x2="1532.6" y2="197.8"
      stroke="rgba(255,255,255,0.10)" stroke-width="0.5" />
<line x1="1560.0" y1="360.0" x2="1532.6" y2="197.7"
      stroke="rgba(255,255,255,0.10)" stroke-width="0.5" />
<line x1="1560.0" y1="360.0" x2="1532.6" y2="197.7"
      stroke="rgba(255,255,255,0.10)" stroke-width="0.5" />
<line x1="1560.0" y1="360.0" x2="1532.6" y2="197.6"
      stroke="rgba(255,255,255,0.10)" stroke-width="0.5" />
<line x1="1560.0" y1="360.0" x2="1532.6" y2="197.6"
      stroke="rgba(255,255,255,0.10)" stroke-width="0.5" />
<line x1="1560.0" y1="360.0" x2="1532.6" y2="190.9"
      stroke="rgba(255,255,255,0.10)" stroke-width="0.5" />
<line x1="1560.0" y1="360.0" x2="1532.6" y2="190.8"
      stroke="rgba(255,255,255,0.10)" stroke-width="0.5" />
<line x1="1560.0" y1="360.0" x2="1532.6" y2="190.8"
      stroke="rgba(255,255,255,0.10)" stroke-width="0.5" />
<line x1="1560.0" y1="360.0" x2="1536.0" y2="190.3"
      stroke="rgba(255,255,255,0.10)" stroke-width="0.5" />
<line x1="1560.0" y1="360.0" x2="1536.0" y2="190.3"
      stroke="rgba(255,255,255,0.10)" stroke-width="0.5" />
<line x1="1560.0" y1="360.0" x2="1536.1" y2="190.3"
      stroke="rgba(255,255,255,0.10)" stroke-width="0.5" />
<line x1="1560.0" y1="360.0" x2="1539.4" y2="189.8"
      stroke="rgba(255,255,255,0.10)" stroke-width="0.5" />
<line x1="1560.0" y1="360.0" x2="1539.4" y2="189.8"
      stroke="rgba(255,255,255,0.10)" stroke-width="0.5" />
<line x1="1560.0" y1="360.0" x2="1539.4" y2="189.8"
      stroke="rgba(255,255,255,0.10)" stroke-width="0.5" />
<line x1="1560.0" y1="360.0" x2="1540.8" y2="189.7"
      stroke="rgba(255,255,255,0.10)" stroke-width="0.5" />
<line x1="1560.0" y1="360.0" x2="1540.8" y2="189.7"
      stroke="rgba(255,255,255,0.10)" stroke-width="0.5" />
<line x1="1560.0" y1="360.0" x2="1540.8" y2="189.6"
      stroke="rgba(255,255,255,0.10)" stroke-width="0.5" />
<line x1="1560.0" y1="360.0" x2="1540.8" y2="189.6"
      stroke="rgba(255,255,255,0.10)" stroke-width="0.5" />
<line x1="1560.0" y1="360.0" x2="1540.8" y2="189.6"
      stroke="rgba(255,255,255,0.10)" stroke-width="0.5" />
<line x1="1560.0" y1="360.0" x2="1540.8" y2="189.6"
      stroke="rgba(255,255,255,0.10)" stroke-width="0.5" />
<line x1="1560.0" y1="360.0" x2="1542.3" y2="189.5"
      stroke="rgba(255,255,255,0.10)" stroke-width="0.5" />
<line x1="1560.0" y1="360.0" x2="1542.3" y2="189.5"
      stroke="rgba(255,255,255,0.10)" stroke-width="0.5" />
<line x1="1560.0" y1="360.0" x2="1542.3" y2="189.5"
      stroke="rgba(255,255,255,0.10)" stroke-width="0.5" />
<line x1="1560.0" y1="360.0" x2="1560.0" y2="188.6"
      stroke="rgba(255,255,255,0.10)" stroke-width="0.5" />
<line x1="1560.0" y1="360.0" x2="1564.0" y2="188.6"
      stroke="rgba(255,255,255,0.10)" stroke-width="0.5" />
<line x1="1560.0" y1="360.0" x2="1564.0" y2="188.6"
      stroke="rgba(255,255,255,0.10)" stroke-width="0.5" />
<line x1="1560.0" y1="360.0" x2="1564.0" y2="188.6"
      stroke="rgba(255,255,255,0.10)" stroke-width="0.5" />
<line x1="1560.0" y1="360.0" x2="1564.4" y2="188.6"
      stroke="rgba(255,255,255,0.10)" stroke-width="0.5" />
<line x1="1560.0" y1="360.0" x2="1564.5" y2="188.6"
      stroke="rgba(255,255,255,0.10)" stroke-width="0.5" />
<line x1="1560.0" y1="360.0" x2="1564.5" y2="188.6"
      stroke="rgba(255,255,255,0.10)" stroke-width="0.5" />
<line x1="1560.0" y1="360.0" x2="1564.8" y2="188.6"
      stroke="rgba(255,255,255,0.10)" stroke-width="0.5" />
<line x1="1560.0" y1="360.0" x2="1564.8" y2="188.6"
      stroke="rgba(255,255,255,0.10)" stroke-width="0.5" />
<line x1="1560.0" y1="360.0" x2="1564.8" y2="188.6"
      stroke="rgba(255,255,255,0.10)" stroke-width="0.5" />
<line x1="1560.0" y1="360.0" x2="1564.8" y2="188.6"
      stroke="rgba(255,255,255,0.10)" stroke-width="0.5" />
<line x1="1560.0" y1="360.0" x2="1564.8" y2="188.6"
      stroke="rgba(255,255,255,0.10)" stroke-width="0.5" />
<line x1="1560.0" y1="360.0" x2="1564.8" y2="188.6"
      stroke="rgba(255,255,255,0.10)" stroke-width="0.5" />
<line x1="1560.0" y1="360.0" x2="1604.4" y2="194.4"
      stroke="rgba(255,255,255,0.10)" stroke-width="0.5" />
<line x1="1560.0" y1="360.0" x2="1645.7" y2="211.5"
      stroke="rgba(255,255,255,0.10)" stroke-width="0.5" />
<line x1="1560.0" y1="360.0" x2="1681.2" y2="238.8"
      stroke="rgba(255,255,255,0.10)" stroke-width="0.5" />
<line x1="1560.0" y1="360.0" x2="1708.5" y2="274.3"
      stroke="rgba(255,255,255,0.10)" stroke-width="0.5" />
<line x1="1560.0" y1="360.0" x2="1725.6" y2="315.6"
      stroke="rgba(255,255,255,0.10)" stroke-width="0.5" />
<line x1="1560.0" y1="360.0" x2="1731.4" y2="360.0"
      stroke="rgba(255,255,255,0.10)" stroke-width="0.5" />
<line x1="1560.0" y1="360.0" x2="1725.6" y2="404.4"
      stroke="rgba(255,255,255,0.10)" stroke-width="0.5" />
<line x1="1560.0" y1="360.0" x2="1708.5" y2="445.7"
      stroke="rgba(255,255,255,0.10)" stroke-width="0.5" />
<line x1="1560.0" y1="360.0" x2="1681.2" y2="481.2"
      stroke="rgba(255,255,255,0.10)" stroke-width="0.5" />
<line x1="1560.0" y1="360.0" x2="1645.7" y2="508.5"
      stroke="rgba(255,255,255,0.10)" stroke-width="0.5" />
<line x1="1560.0" y1="360.0" x2="1604.4" y2="525.6"
      stroke="rgba(255,255,255,0.10)" stroke-width="0.5" />
<line x1="1560.0" y1="360.0" x2="1560.0" y2="531.4"
      stroke="rgba(255,255,255,0.10)" stroke-width="0.5" />
<line x1="1560.0" y1="360.0" x2="1548.1" y2="531.0"
      stroke="rgba(255,255,255,0.10)" stroke-width="0.5" />
<line x1="1560.0" y1="360.0" x2="1548.1" y2="531.0"
      stroke="rgba(255,255,255,0.10)" stroke-width="0.5" />
<line x1="1560.0" y1="360.0" x2="1548.1" y2="531.0"
      stroke="rgba(255,255,255,0.10)" stroke-width="0.5" />
<line x1="1560.0" y1="360.0" x2="1532.6" y2="529.2"
      stroke="rgba(255,255,255,0.10)" stroke-width="0.5" />
<line x1="1560.0" y1="360.0" x2="1532.6" y2="529.2"
      stroke="rgba(255,255,255,0.10)" stroke-width="0.5" />
<line x1="1560.0" y1="360.0" x2="1532.6" y2="529.1"
      stroke="rgba(255,255,255,0.10)" stroke-width="0.5" />
<line x1="1560.0" y1="360.0" x2="1532.6" y2="488.9"
      stroke="rgba(255,255,255,0.10)" stroke-width="0.5" />
<line x1="1560.0" y1="360.0" x2="1532.6" y2="488.9"
      stroke="rgba(255,255,255,0.10)" stroke-width="0.5" />
<line x1="1560.0" y1="360.0" x2="1532.6" y2="488.8"
      stroke="rgba(255,255,255,0.10)" stroke-width="0.5" />
<line x1="1560.0" y1="360.0" x2="1532.6" y2="481.4"
      stroke="rgba(255,255,255,0.10)" stroke-width="0.5" />
<line x1="1560.0" y1="360.0" x2="1532.6" y2="481.3"
      stroke="rgba(255,255,255,0.10)" stroke-width="0.5" />
<line x1="1560.0" y1="360.0" x2="1532.6" y2="481.3"
      stroke="rgba(255,255,255,0.10)" stroke-width="0.5" />
<line x1="1560.0" y1="360.0" x2="1532.6" y2="462.4"
      stroke="rgba(255,255,255,0.10)" stroke-width="0.5" />
<line x1="1560.0" y1="360.0" x2="1532.6" y2="449.9"
      stroke="rgba(255,255,255,0.10)" stroke-width="0.5" />
<line x1="1560.0" y1="360.0" x2="1532.6" y2="449.9"
      stroke="rgba(255,255,255,0.10)" stroke-width="0.5" />
<line x1="1560.0" y1="360.0" x2="1532.6" y2="449.9"
      stroke="rgba(255,255,255,0.10)" stroke-width="0.5" />
<line x1="1560.0" y1="360.0" x2="1532.6" y2="407.5"
      stroke="rgba(255,255,255,0.10)" stroke-width="0.5" />
<line x1="1560.0" y1="360.0" x2="1532.6" y2="405.7"
      stroke="rgba(255,255,255,0.10)" stroke-width="0.5" />
<line x1="1560.0" y1="360.0" x2="1532.6" y2="405.7"
      stroke="rgba(255,255,255,0.10)" stroke-width="0.5" />
<line x1="1560.0" y1="360.0" x2="1532.6" y2="405.6"
      stroke="rgba(255,255,255,0.10)" stroke-width="0.5" />
<line x1="1560.0" y1="360.0" x2="1532.6" y2="405.1"
      stroke="rgba(255,255,255,0.10)" stroke-width="0.5" />
<line x1="1560.0" y1="360.0" x2="1532.6" y2="405.1"
      stroke="rgba(255,255,255,0.10)" stroke-width="0.5" />
<line x1="1560.0" y1="360.0" x2="1532.6" y2="405.0"
      stroke="rgba(255,255,255,0.10)" stroke-width="0.5" />
<line x1="1560.0" y1="360.0" x2="1532.6" y2="387.4"
      stroke="rgba(255,255,255,0.10)" stroke-width="0.5" />
<line x1="1560.0" y1="360.0" x2="1532.6" y2="385.1"
      stroke="rgba(255,255,255,0.10)" stroke-width="0.5" />
<line x1="1560.0" y1="360.0" x2="1532.6" y2="385.1"
      stroke="rgba(255,255,255,0.10)" stroke-width="0.5" />
<line x1="1560.0" y1="360.0" x2="1532.6" y2="385.1"
      stroke="rgba(255,255,255,0.10)" stroke-width="0.5" />
<line x1="1560.0" y1="360.0" x2="1532.6" y2="375.8"
      stroke="rgba(255,255,255,0.10)" stroke-width="0.5" />
<line x1="1560.0" y1="360.0" x2="1532.6" y2="367.3"
      stroke="rgba(255,255,255,0.10)" stroke-width="0.5" />
<circle cx="1560.0" cy="360.0" r="5" fill="#00ff66" />
</g>
<rect x="1260" y="60" width="600" height="600" fill="none" stroke="#555" stroke-width="1" />
<text x="1560" y="48" fill="white" font-size="15" text-anchor="middle" font-family="monospace">Reactor room — 108 rays, vision r=200</text>
</svg>